<svg xmlns="http://www.w3.org/2000/svg" xmlns:xlink="http://www.w3.org/1999/xlink" width="16.36mm" height="14.79mm" viewBox="0 0 46.39 41.92">
  <defs>
    <style>
      .a, .c {
        fill: none;
      }

      .b {
        clip-path: url(#a);
      }

      .c {
        stroke: #000;
        stroke-miterlimit: 10;
        stroke-width: 0.25px;
      }
    </style>
    <clipPath id="a">
      <rect class="a" x="-0.06" y="0.14" width="46.37" height="41.94"/>
    </clipPath>
  </defs>
  <title>grid</title>
  <g class="b">
    <g>
      <g>
        <path class="c" d="M19.43,21.19A19.45,19.45,0,0,1,0,40.65,19.45,19.45,0,0,1-19.47,21.19,19.45,19.45,0,0,1,0,1.74,19.47,19.47,0,0,1,17.91,13.62,19.31,19.31,0,0,1,19.43,21.19Z"/>
        <path class="c" d="M18.75,21.19A18.77,18.77,0,0,1,0,40,18.77,18.77,0,0,1-18.79,21.19,18.76,18.76,0,0,1,0,2.43,18.77,18.77,0,0,1,17.19,13.7,18.79,18.79,0,0,1,18.75,21.19Z"/>
      </g>
      <path class="c" d="M439.78,40.78H-379.37l.07-10.43H439.85V6.23H-379.3l-.65,1.36H439.2v5.32H-379.95l.65,1.8H439.85l-.34,1.56H-379.64l2.8-12.59H442.31l-2.53-1.9H-379.37L-10.23,45S40.19,34.85,41.3-.33l-1,.21c0,29.42-38.53,40.93-45.4,42.75-.67.18-1,.26-1,.26l54.79-4.55C21.87,27.28,17.19,13.7,17.19,13.7S13.69,5,15.33-2.6l.71.05c-1.64,7.64,2,16.64,2,16.64l-.16-.47s5.53,15.71,41.5,28.6L-.39,20.76l.21-.14L59.62-.84,59.27,0-.53,21.47l.44.19,59.8,21.46,2.35-8L33.14-2.2l.75-.15L62.81,35l1.82-15.22L-5.18,43.49l.1-.76L64.73,19,44.55-.31,29.43,46.37h-.7L43.85-.31,1.64-456.81V362.34L4,362.21V-456.94l15.59.06V362.27l4-.06V-456.94l12.94.18V362.39l-2.65-.18V-456.94h-5V362.21H41.66V-456.94l2.67-.36V361.85l12.21.36V294.92l-12.21-.36V-524.59l-2.67.36V294.92H28.89V-524.23h5V294.92l2.65.18V-524l-12.94-.18V294.92l-4,.07V-524.16L4-524.23V294.92l-2.35.13V-524.1"/>
    </g>
  </g>
</svg>
