<svg xmlns="http://www.w3.org/2000/svg" width="200" height="200" id="logo-jij" viewBox="0 0 60 60">
    <g id="Design-v2" stroke="none" stroke-width="1" fill="none" fill-rule="evenodd">
        <g id="Home---ingelogd" transform="translate(-26.000000, -10.000000)" fill-rule="nonzero">
            <g id="logo-jij-online" transform="translate(26.000000, 10.000000)">
                <rect id="Rectangle-path" fill="#FFFFFF" x="6" y="6" width="49" height="49"/>
                <path d="M0,0 L0,43.872 L0,60 L60,60 L60,0 L0,0 Z M39.96,14.976 L39.984,14.976 C41.808,14.976 42.672,16.272 42.672,17.472 C42.672,19.176 41.472,20.304 39.768,20.304 C38.496,20.304 37.08,19.2 37.08,17.592 C37.08,16.272 38.256,14.976 39.96,14.976 Z M30.168,15.12 L30.192,15.12 C31.992,15.12 32.904,16.344 32.904,17.616 C32.904,19.296 31.584,20.4 30.024,20.4 C28.704,20.4 27.336,19.248 27.336,17.688 C27.336,16.392 28.488,15.12 30.168,15.12 Z M20.4,14.976 L20.424,14.976 C22.248,14.976 23.112,16.272 23.112,17.472 C23.112,19.176 21.912,20.304 20.208,20.304 C18.936,20.328 17.52,19.2 17.52,17.592 C17.52,16.272 18.696,14.976 20.4,14.976 Z M23.424,33.912 C23.424,35.928 23.28,36.84 22.56,38.328 C21.48,40.704 19.68,43.128 17.736,44.112 C16.728,44.112 14.76,42.6 14.688,41.736 C15.792,41.184 17.04,40.44 17.52,39.552 C18.168,38.376 18.48,36.984 18.456,33.672 L18.384,25.824 L16.056,25.752 C16.056,24.888 16.128,23.928 16.128,23.088 C17.664,22.896 23.184,22.2 23.4,22.2 C23.472,22.2 23.472,22.224 23.472,22.296 C23.448,25.848 23.424,30.336 23.424,33.912 Z M26.184,36.144 C26.184,35.352 26.184,34.416 26.208,33.6 L27.84,33.504 C27.936,33.504 27.96,33.432 27.96,33.384 L27.96,25.752 L25.992,25.68 C25.992,24.84 26.016,23.856 26.064,23.016 C27.744,22.896 32.736,22.176 32.976,22.176 C33.048,22.176 33.048,22.2 33.048,22.272 C33.024,25.632 32.952,30.36 32.952,33.456 L34.656,33.552 L34.656,36.096 L30.384,36.096 C29.04,36.096 27.408,36.144 26.184,36.144 Z M42.984,33.912 C42.984,35.928 42.84,36.84 42.12,38.328 C41.04,40.704 39.24,43.128 37.296,44.112 C36.288,44.112 34.32,42.6 34.248,41.736 C35.352,41.184 36.6,40.44 37.08,39.552 C37.728,38.376 38.04,36.984 38.016,33.672 L37.944,25.824 L35.616,25.752 C35.616,24.888 35.688,23.928 35.688,23.088 C37.224,22.896 42.72,22.2 42.96,22.2 C43.032,22.2 43.032,22.224 43.032,22.296 C43.008,25.848 42.984,30.336 42.984,33.912 Z" id="Shape" fill="#00A9DC"/>
            </g>
        </g>
    </g>

</svg>